<svg width="273" height="368" viewBox="0 0 273 368" fill="none" xmlns="http://www.w3.org/2000/svg">
<g opacity="0.22">
<path opacity="0.3" d="M70.5378 348.807C73.7721 347.519 76.4065 344.544 78.3188 341.69C80.3031 338.803 81.7766 335.739 83.1604 332.594C85.9251 326.283 88.2769 319.554 92.8137 311.827C101.874 296.242 118.314 291.788 124.823 289.469C127.79 288.423 132.548 286.806 136.636 285.607L139.279 284.832C130.408 284.479 123.433 286.664 116.957 289.433C109.814 292.44 103.213 296.377 93.3325 298.538C86.7207 299.941 80.4662 299.519 75.8079 297.852C71.107 296.271 68.12 293.52 66.5099 291.129C64.8223 288.805 64.4798 286.438 64.3224 285.016C64.2056 283.528 64.4059 282.677 64.4059 282.677C69.8962 286.042 75.4895 285.293 80.1041 283.298C84.8556 281.276 89.0821 278.141 95.2284 275.267C101.364 272.359 107.891 272.252 113.497 273.318C119.133 274.372 123.745 276.59 126.485 277.669C128.948 278.651 132.856 280.374 136.042 281.984C137.813 282.91 139.39 283.733 140.443 284.282C148.585 277.75 156.935 271.494 165.492 265.515C158.855 265.206 153.364 266.21 147.909 267.44C141.101 268.936 134.141 270.826 125.428 269.943C113.709 268.543 107.952 262.519 105.969 257.999C103.924 253.334 104.74 249.9 104.74 249.9C109.591 252.651 114.415 252.57 118.967 251.687C123.577 250.79 127.969 249.116 133.321 248.112C138.647 247.098 143.371 248.652 147.629 250.889C151.86 253.092 155.454 255.991 157.679 257.426C160.112 259.021 164.658 262.003 167.697 263.995C169.179 262.976 170.665 261.963 172.162 260.964C173.957 259.315 176.273 257.499 178.388 256.381C179.249 255.941 180.134 255.552 181.039 255.214C182.825 254.083 184.613 252.949 186.426 251.855C190.484 249.426 194.601 247.091 198.75 244.809C193.79 245.024 188.847 245.667 183.976 246.73C180.699 247.412 177.498 248.164 174.181 248.742C170.764 249.293 167.752 249.804 163.262 249.6C157.88 249.263 154.669 248.118 152.111 246.865C149.622 245.608 147.84 244.141 146.179 242.779C144.648 241.513 143.119 240.226 141.975 239.267C140.89 238.359 140.26 237.716 140.26 237.716C145.975 235.462 150.572 234.106 155.368 232.248L162.524 229.663L166.03 228.472C167.246 228.022 168.49 227.662 169.753 227.393C175.385 226.141 180.034 227.85 184.012 230.171C187.989 232.493 191.29 235.437 193.442 236.885C195.337 238.181 198.519 240.291 201.442 241.925C201.878 242.172 202.301 242.402 202.721 242.62C213.45 236.865 224.508 231.772 235.831 227.37C226.018 225.691 218.282 225.276 210.614 225.071C202.121 224.82 193.794 224.721 184.49 222.352C182.92 221.949 181.455 221.514 180.01 221.028C176.502 219.795 173.196 218.073 170.187 215.911C167.116 213.677 165.134 211.56 163.469 209.669C161.805 207.779 160.549 206.088 159.668 204.856C159.187 204.205 158.751 203.521 158.365 202.808C165.978 202.588 171.883 203.087 177.998 202.85C181.031 202.776 183.978 202.648 186.865 202.373C190.205 202.126 193.552 202.093 196.885 202.275C204.073 202.67 209.539 205.563 214.086 208.793C218.599 212.039 222.214 215.632 224.607 217.521C226.717 219.171 230.237 221.935 233.412 224.097C234.911 225.144 236.305 226.067 237.37 226.754C243.403 224.463 249.522 222.41 255.728 220.597C260.818 219.088 265.976 217.807 271.163 216.677C252.766 205.826 238.849 207.161 220.866 201.479C208.303 197.557 201.705 192.363 198.056 187.941C194.42 183.562 193.895 179.944 193.895 179.944C208.577 183.941 218.906 179.892 235.059 182.404C251.172 185.016 259.056 198.38 262.968 203.419C265.496 206.707 270.154 213.095 272.533 216.372C283.153 214.124 293.917 212.745 304.718 212.248C298.923 205.342 291.788 201.521 284.814 198.233C276.703 194.34 267.887 191.302 258.916 183.534C247.958 174.109 244.224 165.25 243.31 159.326C242.385 153.34 244.048 150.016 244.048 150.016C249.093 156.013 254.574 159.254 260.372 162.013C263.283 163.326 266.443 164.75 269.409 166.09C272.588 167.513 275.846 169.263 278.942 170.697C285.695 174.05 290.676 179.157 294.361 184.463C298.046 189.769 300.152 195.043 301.507 198.051C303.106 201.581 304.481 205.213 305.623 208.925C305.988 210.116 306.286 211.215 306.532 212.185C314.645 211.87 322.757 212.105 330.811 212.888C334.266 213.247 337.71 213.71 341.144 214.279C336.541 210.428 332.725 206.746 329.161 203.276C324.495 198.628 320.282 194.355 316.303 190.007C312.33 185.685 308.48 181.235 304.954 176.504C301.574 172.044 298.009 167.277 294.576 161.386C290.005 153.554 287.448 146.158 286.574 139.88C285.67 133.594 286.391 128.555 287.581 125.012C288.839 121.425 290.451 119.298 291.741 118.048C292.994 116.806 293.831 116.41 293.831 116.41C293.478 125.942 297.436 132.861 301.984 138.695C306.642 144.635 312.282 149.763 318.574 157.523C325.099 165.694 327.694 173.385 329.994 180.371C332.182 187.314 333.567 193.559 334.94 197.21C336.114 200.459 338.261 205.768 340.765 210.184C341.695 211.865 342.661 213.408 343.503 214.68C351.723 216.116 359.795 218.233 367.634 221.011C371.14 222.255 374.592 223.619 377.991 225.103C377.802 224.927 377.612 224.749 377.425 224.574C373.626 220.895 370.148 217.215 366.963 213.229C363.57 209.143 360.532 204.772 357.88 200.161C355.07 195.294 352.477 189.788 350.545 183.125C348.672 176.756 348.077 170.049 348.792 163.386C349.41 157.796 350.881 152.313 353.152 147.13C357.23 137.851 362.501 131.767 365.549 128.145C368.252 124.869 372.992 120.026 377.29 116.872C381.576 113.608 385.116 112.167 385.116 112.167C379.545 117.142 375.714 124.138 373.343 130.717C371.079 137.067 369.726 143.687 369.325 150.374C368.422 163.359 370.694 174.387 374.961 188.355C380.75 206.779 385.03 217.008 387.507 224.157C388.585 227.014 389.372 229.338 389.958 231.087C393.829 233.289 397.55 235.739 401.099 238.422L401.108 238.431C401.496 238.731 401.746 239.176 401.802 239.669C401.858 240.161 401.716 240.661 401.408 241.058C401.099 241.453 400.65 241.714 400.157 241.783C399.665 241.852 399.171 241.723 398.782 241.425L398.653 241.324C395.978 239.274 393.195 237.366 390.315 235.611L389.141 235.889L387.066 236.782C385.661 237.349 384.31 238.047 383.03 238.866C381.713 239.682 380.427 240.387 379.195 241.334C374.241 244.858 369.984 248.855 366.001 252.981C358.015 261.239 351.021 270.069 340.949 279.421C327.544 291.905 316.797 296.81 309.731 298.372C302.567 299.89 299.143 298.347 299.143 298.347C315.449 285.854 319.214 272.815 333.219 256.508C347.199 239.97 366.552 236.123 374.431 234.677C377.483 234.014 382.239 233.319 386.291 233.256C379.92 229.743 373.268 226.749 366.397 224.303C364.922 223.758 363.437 223.243 361.942 222.76C358.066 222.884 354.197 224.067 350.757 226.049C345.417 229.007 340.972 233.194 337.066 237.793C333.047 242.452 329.858 247.276 325.367 253.046C321.369 258.11 317.35 263.385 312.493 269.159C299.705 284.657 288.388 292.155 280.849 294.739C277.059 296.085 274.236 296.4 272.355 296.377C270.473 296.354 269.57 296.062 269.57 296.062C278.231 288.803 283.045 281.078 287.446 273.12C291.862 265.11 295.734 256.601 302.816 246.563C304.541 244.125 306.44 241.813 308.496 239.645C309.548 238.537 310.367 237.7 311.241 236.869C312.172 235.953 313.103 235.081 314.094 234.191C317.855 230.781 321.99 227.812 326.414 225.345C332.75 221.866 339.682 219.669 346.807 218.88C346.937 218.861 347.084 218.844 347.222 218.831C341.67 217.638 336.058 216.729 330.387 216.103C324.875 215.509 319.326 215.228 313.771 215.165C304.203 220.836 297.912 228.834 292.706 236.639C286.515 245.947 281.686 255.812 272.826 266.827C267.743 273.145 262.67 278.91 257.81 282.739C252.943 286.65 248.389 288.908 244.681 289.869C240.973 290.83 238.238 290.621 236.542 290.14C234.845 289.658 234.152 289.096 234.152 289.096C238.309 286.99 241.387 283.771 243.75 280.432C246.133 277.072 247.895 273.542 249.544 269.878C251.193 266.214 252.682 262.412 254.636 258.275C255.564 256.238 256.9 253.924 257.911 251.964C258.958 249.988 260.126 247.861 261.439 245.645C266.634 236.754 273.69 230.175 280.533 225.713C287.35 221.208 293.811 218.959 297.542 217.553C299.308 216.837 301.706 216.033 304.239 215.298C292.042 215.819 279.892 217.473 267.946 220.24C263.773 221.775 259.993 225.232 257.278 229.115C254.018 233.843 251.841 239.024 250.193 244.368C249.348 247.028 248.641 249.765 247.894 252.599L246.662 257.111L245.322 261.524C243.501 267.384 241.379 273.619 238.062 280.337C233.679 289.278 228.193 296.024 222.858 300.394C217.498 304.814 212.336 306.746 208.543 307.483C206.895 307.738 205.229 307.831 203.57 307.761C202.436 307.643 201.32 307.41 200.238 307.065C198.563 306.514 197.855 305.935 197.855 305.935C207.05 301.821 211.725 294.623 214.627 287.407C217.595 280.031 219.116 272.232 222.089 262.255C223.487 257.531 225.411 252.969 227.824 248.654C229.929 244.757 232.594 240.636 235.352 237.374C240.253 231.473 245.513 227.694 249.106 225.417C239.122 228.62 229.325 232.423 219.771 236.803C214.437 243.217 212.582 250.626 211.681 257.751C210.636 266.169 210.389 276.04 205.887 286.895C202.906 294.128 199.012 299.308 195.311 302.777C191.61 306.246 188.065 308.122 185.171 309.118C182.558 309.989 180.468 310.176 178.911 310.139C178.405 311.37 177.797 312.559 177.096 313.694C174.538 317.906 171.299 320.339 168.604 321.43C165.892 322.554 163.696 322.535 162.215 322.322C160.734 322.11 159.973 321.726 159.973 321.726C164.392 317.269 164.724 311.851 163.719 307.197C162.723 302.468 160.572 297.649 159.449 291.209C158.167 285.448 159.571 278.762 162.225 273.639C163.333 271.441 164.665 269.36 166.2 267.431C160.948 271.05 155.773 274.782 150.676 278.628C147.31 284.981 147.338 291.41 148.021 297.541C148.712 304.391 150.41 311.61 148.485 321.134C147.147 327.413 144.517 332.286 141.562 335.405C138.76 338.646 135.597 340.196 133.158 341.071C127.976 342.604 124.787 341.318 124.787 341.318C128.613 336.678 129.543 331.673 129.428 326.963C129.283 322.166 128.016 317.684 127.48 312.138C126.907 306.614 128.785 301.314 131.53 296.696C133.361 293.591 135.561 290.994 137.392 288.994C136.258 289.911 135.118 290.819 133.992 291.744C129.003 296.619 125.243 301.624 121.866 306.682C116.527 314.688 112.154 322.904 105.085 331.851C95.7335 343.748 86.6214 349.181 79.8673 350.538C76.5239 351.208 73.9915 350.889 72.4917 350.157C71.0264 349.483 70.5378 348.807 70.5378 348.807ZM184.884 292.024C186.168 285.923 186.53 279.801 187.665 272.444C188.195 268.949 189.201 265.53 190.655 262.287C192.043 259.125 193.784 256.124 195.843 253.341C198.574 249.618 201.603 246.784 204.09 244.698C203.953 244.698 203.804 244.694 203.671 244.694C198.208 247.562 192.819 250.567 187.503 253.707C185.233 255.059 182.989 256.456 180.746 257.856C179.735 259.639 179.041 261.578 178.697 263.586C178.063 267.077 178.253 270.577 178.729 274.019C179.204 277.461 180.004 280.903 180.672 284.71C181.049 286.776 181.313 288.863 181.463 290.963C181.613 293.165 181.64 295.377 181.544 297.589C181.469 299.34 181.282 301.088 180.983 302.821C182.945 299.281 184.099 295.659 184.884 292.024Z" fill="#6E9277"/>
</g>
</svg>
